Coordinates
version=1
nRows=10
nColumns=40
inDegrees=yes

Units are S.I. units (second, meters, Newtons, ...)
If the header above contains a line with 'inDegrees', this indicates whether rotational values are in degrees (yes) or radians (no).

endheader
time	pelvis_tilt	pelvis_list	pelvis_rotation	pelvis_tx	pelvis_ty	pelvis_tz	hip_flexion_r	hip_adduction_r	hip_rotation_r	knee_angle_r	knee_angle_r_beta	ankle_angle_r	subtalar_angle_r	mtp_angle_r	hip_flexion_l	hip_adduction_l	hip_rotation_l	knee_angle_l	knee_angle_l_beta	ankle_angle_l	subtalar_angle_l	mtp_angle_l	lumbar_extension	lumbar_bending	lumbar_rotation	arm_flex_r	arm_add_r	arm_rot_r	elbow_flex_r	pro_sup_r	wrist_flex_r	wrist_dev_r	arm_flex_l	arm_add_l	arm_rot_l	elbow_flex_l	pro_sup_l	wrist_flex_l	wrist_dev_l
     15.61700000	     29.92227559	     -1.97894625	      0.39767575	      0.01809714	      1.34079605	     -0.00490267	     22.69619309	     -6.83333161	     -9.65325881	     87.53805509	      1.52782728	    -15.01283324	    -20.63890689	      0.00000000	     15.67043345	     -1.97214742	      2.27140937	     50.44172228	      0.88037413	    -13.50318049	    -22.17280541	      0.00000000	    -78.97926075	      8.10402760	      3.70224830	     42.00292658	     -6.09577699	    -26.25983449	     47.30666357	     56.26775993	      0.00000000	      0.00000000	     47.17004555	     13.61921422	    -25.41328804	     47.12297215	     43.33798631	      0.00000000	      0.00000000
     15.63300000	     29.84521106	     -2.18195469	     -0.02588776	      0.01863800	      1.34071453	     -0.00463659	     25.03608646	     -6.78808234	     -9.03523343	     89.92310816	      1.56945431	    -14.60703671	    -20.67948497	      0.00000000	     13.17521923	     -2.61280157	      1.28719716	     47.08752129	      0.82183228	    -14.51098390	    -21.74950601	      0.00000000	    -78.96189989	      7.93388532	      3.97470963	     42.15565702	     -6.16809793	    -26.06211016	     47.27375626	     56.43674317	      0.00000000	      0.00000000	     47.15577585	     13.51438029	    -25.40324682	     47.10202820	     43.23181541	      0.00000000	      0.00000000
     15.65000000	     29.66027362	     -2.47756836	     -0.17533624	      0.01916089	      1.34040641	     -0.00467336	     27.38629409	     -6.70307253	     -8.73424161	     92.01561920	      1.60597552	    -14.02928796	    -20.73307471	      0.00000000	     11.04365306	     -3.23671817	      0.70787442	     44.15855925	      0.77071225	    -15.73842174	    -21.16734663	      0.00000000	    -78.84395868	      8.03608457	      4.29495316	     42.28090456	     -6.23530516	    -25.89386132	     47.25688386	     56.56366714	      0.00000000	      0.00000000	     47.12981450	     13.42924052	    -25.38674365	     47.08551153	     43.08805793	      0.00000000	      0.00000000
     15.66700000	     29.38852936	     -2.83250623	     -0.14903389	      0.01965279	      1.33989849	     -0.00484820	     29.75279636	     -6.59920173	     -8.66429534	     93.82666847	      1.63758429	    -13.28653025	    -20.73393694	      0.00000000	      9.26411156	     -3.87852372	      0.46583670	     41.73555984	      0.72842293	    -16.94783761	    -20.36455780	      0.00000000	    -78.63957506	      8.29623353	      4.64483928	     42.39281785	     -6.26010846	    -25.78620660	     47.21883227	     56.53676946	      0.00000000	      0.00000000	     47.11186630	     13.38040548	    -25.39497247	     47.05553652	     42.98643698	      0.00000000	      0.00000000
     15.68300000	     29.18810473	     -3.09995901	     -0.19518364	      0.02002665	      1.33954234	     -0.00501993	     32.03202334	     -6.51361283	     -8.48522692	     95.36604280	      1.66445144	    -12.48391006	    -20.72640609	      0.00000000	      7.53312746	     -4.40918550	      0.20889772	     39.64572259	      0.69194839	    -18.29713133	    -19.83707285	      0.00000000	    -78.50813440	      8.44318691	      4.93407779	     42.51556561	     -6.27223518	    -25.74082486	     47.16555710	     56.47892429	      0.00000000	      0.00000000	     47.12030068	     13.34411259	    -25.41765501	     47.02433604	     42.88015227	      0.00000000	      0.00000000
     15.70000000	     29.08875002	     -3.30624141	     -0.27388743	      0.02036202	      1.33930997	     -0.00517187	     34.07707055	     -6.41339012	     -8.22803762	     96.55951877	      1.68528153	    -11.73437092	    -20.80179687	      0.00000000	      5.91181735	     -4.83380636	      0.00514756	     38.05351542	      0.66415914	    -19.55396639	    -19.75018221	      0.00000000	    -78.45830134	      8.52299219	      5.16024262	     42.59983455	     -6.27334138	    -25.72285719	     47.13456310	     56.50959203	      0.00000000	      0.00000000	     47.12197085	     13.31289045	    -25.44407871	     47.00805561	     42.76766868	      0.00000000	      0.00000000
     15.71700000	     28.91697539	     -3.53654923	     -0.18440529	      0.02054818	      1.33906240	     -0.00545513	     36.04130844	     -6.31016536	     -8.06607774	     97.40506236	      1.70003905	    -11.03890849	    -20.81849168	      0.00000000	      4.63883932	     -5.24001973	      0.27559310	     37.13435712	      0.64811680	    -19.99330459	    -19.66329544	      0.00000000	    -78.35544204	      8.73613245	      5.38745102	     42.67338077	     -6.27990262	    -25.71488891	     47.12609902	     56.49856475	      0.00000000	      0.00000000	     47.10372045	     13.34028886	    -25.48316821	     47.05072295	     42.71231531	      0.00000000	      0.00000000
     15.73300000	     28.83148484	     -3.66847167	     -0.21980454	      0.02067258	      1.33889235	     -0.00549308	     37.80583716	     -6.14543189	     -7.71178405	     98.02538717	      1.71086576	     -9.93311331	    -20.94767910	      0.00000000	      3.51077015	     -5.57024760	      0.54599763	     36.69764657	      0.64049476	    -20.79006177	    -19.57380976	      0.00000000	    -78.30833587	      8.76467643	      5.54083579	     42.69348085	     -6.27002569	    -25.71316787	     47.11441607	     56.49788437	      0.00000000	      0.00000000	     47.07400218	     13.38921686	    -25.56481082	     47.10598945	     42.64859809	      0.00000000	      0.00000000
     15.75000000	     28.82443450	     -3.65004235	     -0.37238057	      0.02073102	      1.33880614	     -0.00528321	     39.29231285	     -6.03571397	     -7.17854378	     98.29602826	      1.71558933	     -8.61979112	    -20.69470586	      0.00000000	      2.62690779	     -5.75843425	      0.55818959	     36.88348790	      0.64373830	    -21.69194046	    -19.89546408	      0.00000000	    -78.30383611	      8.61920760	      5.55533361	     42.69970831	     -6.25369381	    -25.69332777	     47.09551442	     56.49300536	      0.00000000	      0.00000000	     47.06408353	     13.42490550	    -25.66596224	     47.14491134	     42.56294114	      0.00000000	      0.00000000
     15.76700000	     28.85652088	     -3.59478811	     -0.51499693	      0.02075393	      1.33888994	     -0.00522528	     40.50184731	     -5.98041832	     -6.64377809	     98.01894751	      1.71075336	     -7.92077767	    -20.17047805	      0.00000000	      2.05160364	     -5.80444759	      0.80072986	     37.80484421	      0.65981900	    -22.00791043	    -20.53663503	      0.00000000	    -78.31812936	      8.51839187	      5.55083858	     42.72440696	     -6.32455750	    -25.60825489	     47.05256964	     56.41796925	      0.00000000	      0.00000000	     47.05508670	     13.43144666	    -25.69501992	     47.11947174	     42.50252239	      0.00000000	      0.00000000
